<svg xmlns="http://www.w3.org/2000/svg" viewBox="3.00 5.25 433.50 108.25" width="434" height="108" role="img" aria-labelledby="t">
  <title id="t">포근나루 심볼 — 컬러</title>
  <path fill="#C8845A" opacity=".69" fill-rule="evenodd" d="M207.000,112.972C198.151,112.726 186.498,111.433 183.453,110.359C182.894,110.161 182.230,110.000 181.977,110.000C181.193,110.000 179.750,108.539 179.750,107.745C179.750,106.691 179.965,106.312 180.887,105.743C183.766,103.963 195.044,102.702 211.250,102.346C216.543,102.230 219.459,102.307 225.750,102.729C239.383,103.643 245.818,105.053 246.922,107.368C247.300,108.160 247.298,108.265 246.893,108.882C245.970,110.291 241.629,111.454 235.250,112.002C225.659,112.826 223.308,112.973 218.500,113.053C215.544,113.102 210.369,113.066 207.000,112.972ZM189.000,90.466C172.868,90.026 164.452,89.729 161.875,89.507C160.363,89.377 156.875,89.152 154.125,89.007C146.384,88.600 138.562,87.748 133.148,86.721C130.314,86.184 128.638,84.869 129.203,83.628C129.617,82.720 130.510,82.255 133.059,81.621C138.806,80.193 149.701,79.060 165.500,78.246C168.319,78.101 173.438,77.813 176.875,77.606C186.379,77.033 213.657,76.723 230.164,77.001C246.705,77.279 264.724,78.177 275.250,79.247C276.556,79.380 278.806,79.607 280.250,79.752C285.399,80.270 291.984,81.300 294.021,81.904C297.212,82.852 297.332,85.122 294.250,86.251C291.364,87.308 281.452,88.583 272.755,89.016C270.071,89.149 266.581,89.366 265.000,89.497C262.307,89.719 258.601,89.844 235.098,90.506C225.050,90.789 200.058,90.768 189.000,90.466Z"/>
  <path fill="#C8845A" fill-rule="evenodd" d="M3.623,68.746C3.520,68.580 3.563,68.365 3.719,68.269C4.387,67.856 16.451,66.248 18.875,66.248C19.700,66.249 22.119,66.033 24.250,65.769C26.381,65.505 29.194,65.216 30.500,65.128C31.806,65.039 33.663,64.858 34.625,64.725C35.587,64.593 39.356,64.316 43.000,64.110C46.644,63.904 49.794,63.686 50.000,63.625C50.206,63.564 52.850,63.397 55.875,63.255C58.900,63.112 63.400,62.833 65.875,62.635C68.350,62.437 72.569,62.207 75.250,62.124C77.931,62.041 81.538,61.866 83.265,61.734C84.993,61.603 92.811,61.329 100.640,61.127C108.469,60.924 117.237,60.650 120.125,60.518C123.013,60.386 132.069,60.214 140.250,60.137C206.789,59.507 215.664,59.354 217.615,58.803C218.273,58.618 218.301,58.573 217.865,58.406C216.621,57.927 204.624,57.732 170.415,57.634C137.519,57.539 133.389,57.485 132.861,57.139C132.535,56.925 132.211,56.750 132.142,56.750C131.862,56.750 128.720,54.505 126.250,52.539C119.753,47.370 113.496,40.994 109.652,35.625C107.138,32.114 103.250,25.865 103.250,25.336C103.250,25.276 102.871,24.416 102.408,23.426C101.630,21.761 99.722,17.049 98.997,15.000C96.981,9.309 96.578,7.131 97.377,6.247C97.625,5.974 98.075,5.750 98.378,5.750C98.907,5.750 102.604,6.715 106.000,7.741C106.894,8.010 108.581,8.475 109.750,8.772C110.919,9.070 112.662,9.516 113.625,9.764C117.046,10.646 122.181,11.832 126.500,12.739C127.944,13.042 129.800,13.445 130.625,13.633C132.979,14.172 140.872,15.587 146.625,16.502C149.781,17.004 155.302,17.759 159.375,18.245C166.746,19.125 167.862,19.265 170.500,19.633C171.944,19.834 174.812,20.115 176.875,20.256C178.938,20.397 181.525,20.620 182.625,20.751C183.725,20.882 186.875,21.107 189.625,21.250C192.375,21.394 196.088,21.621 197.875,21.755C199.662,21.889 204.387,22.057 208.375,22.129L215.625,22.259L204.906,19.155C199.010,17.448 193.918,15.929 193.591,15.780C192.742,15.393 192.145,14.015 192.350,12.918C192.561,11.794 193.748,10.750 194.815,10.750C195.241,10.750 204.317,13.239 214.983,16.281L234.375,21.812L240.451,21.403C243.793,21.178 247.730,20.825 249.201,20.620C257.145,19.508 259.470,19.167 263.000,18.595C265.131,18.250 267.494,17.817 268.250,17.633C269.006,17.449 270.188,17.225 270.875,17.135C271.562,17.046 272.462,16.868 272.875,16.740C273.288,16.612 274.525,16.336 275.625,16.127C279.094,15.469 282.435,14.704 285.750,13.809C286.506,13.605 287.744,13.294 288.500,13.118C289.256,12.941 290.663,12.566 291.625,12.284C292.587,12.002 293.938,11.607 294.625,11.407C297.343,10.617 303.958,8.667 305.375,8.237C306.200,7.987 307.622,7.561 308.535,7.290C309.448,7.019 310.421,6.676 310.696,6.529C311.503,6.097 313.856,5.905 314.450,6.223C315.190,6.619 315.355,7.853 315.011,10.431C313.766,19.763 309.792,31.394 305.115,39.395C304.561,40.342 304.756,40.940 305.677,41.127C306.550,41.305 309.435,42.146 311.250,42.751C313.913,43.641 318.388,44.988 319.500,45.236C320.119,45.373 321.411,45.774 322.371,46.126L324.116,46.766L325.539,46.019C326.322,45.609 327.666,45.091 328.525,44.869C329.968,44.495 330.259,44.495 332.356,44.877C334.534,45.273 336.018,45.718 344.875,48.637C347.075,49.362 349.269,50.072 349.750,50.216C350.231,50.359 351.525,50.800 352.625,51.195C353.725,51.591 355.525,52.229 356.625,52.615C361.228,54.227 363.845,55.903 364.517,57.669C364.645,58.006 364.750,59.061 364.750,60.012C364.750,61.602 364.795,61.750 365.312,61.860C365.622,61.926 368.797,62.106 372.369,62.260C375.941,62.414 378.927,62.580 379.005,62.628C379.083,62.677 381.955,62.895 385.386,63.113C388.818,63.331 392.694,63.615 394.000,63.744C395.306,63.873 398.623,64.105 401.370,64.260C404.117,64.415 406.431,64.582 406.512,64.632C406.593,64.682 408.676,64.902 411.142,65.121C413.608,65.340 416.244,65.624 417.000,65.753C417.756,65.882 419.822,66.103 421.590,66.243C423.358,66.384 425.833,66.664 427.090,66.867C428.347,67.069 430.645,67.412 432.198,67.628C435.485,68.085 436.549,68.404 435.992,68.767C435.790,68.898 435.231,68.943 434.750,68.868C433.256,68.632 422.195,68.269 408.625,68.009C401.475,67.872 390.900,67.643 385.125,67.500C379.350,67.357 371.633,67.168 367.976,67.081L361.327,66.922L359.846,67.836C358.533,68.646 358.178,68.750 356.714,68.750C355.033,68.750 353.091,68.226 349.750,66.870C348.856,66.507 347.562,66.007 346.875,65.758C346.188,65.509 344.444,64.836 343.000,64.263C340.218,63.157 336.414,61.748 332.500,60.373C327.426,58.590 326.151,57.905 324.544,56.102C323.245,54.645 322.535,52.822 322.863,51.789C323.108,51.017 322.070,50.084 320.500,49.664C319.744,49.461 318.281,49.050 317.250,48.749C316.219,48.449 314.756,48.053 314.000,47.869C301.996,44.954 301.485,44.752 302.717,43.391C303.279,42.770 303.555,41.743 303.279,41.297C303.169,41.118 302.358,40.811 301.477,40.614C300.596,40.417 299.256,40.079 298.500,39.862C296.599,39.316 292.653,38.277 291.000,37.887C289.583,37.553 288.362,37.210 283.000,35.644C281.281,35.141 279.031,34.494 278.000,34.205C276.969,33.916 275.450,33.479 274.625,33.234C271.345,32.259 263.074,29.928 262.250,29.747C260.621,29.389 255.523,27.960 251.125,26.627C246.278,25.159 245.409,25.097 243.867,26.107C243.297,26.481 243.296,26.479 243.543,25.586C243.679,25.093 243.697,24.605 243.583,24.500C243.468,24.395 241.508,23.790 239.226,23.155L235.077,22.000L225.653,22.166L216.229,22.332L228.802,25.919C235.717,27.893 241.613,29.570 241.903,29.647C242.300,29.752 242.467,29.651 242.574,29.243L242.717,28.699L243.546,29.308C244.447,29.970 246.543,30.673 253.750,32.732C254.781,33.026 256.356,33.492 257.250,33.766C258.144,34.040 260.337,34.714 262.125,35.263C265.335,36.249 267.330,36.837 270.500,37.733C271.394,37.985 272.969,38.441 274.000,38.745C275.031,39.050 276.550,39.499 277.375,39.742C278.200,39.986 279.719,40.422 280.750,40.710C281.781,40.998 283.469,41.470 284.500,41.758C285.531,42.046 286.881,42.430 287.500,42.611C291.766,43.857 293.923,44.438 298.308,45.520C300.554,46.075 300.543,46.098 295.732,50.832C291.341,55.154 288.853,57.241 287.338,57.874C286.597,58.184 285.953,59.286 286.306,59.639C286.432,59.766 289.484,59.847 309.375,60.250C328.079,60.630 327.319,60.582 329.191,61.490C330.053,61.908 330.822,62.250 330.901,62.250C330.980,62.250 331.794,62.602 332.710,63.033C334.875,64.051 336.357,64.637 339.188,65.593C340.459,66.023 341.500,66.431 341.500,66.500C341.500,66.569 301.816,66.589 253.313,66.544C166.096,66.464 74.336,66.798 57.875,67.254C53.200,67.384 42.542,67.597 34.191,67.728C25.840,67.859 18.917,68.022 18.808,68.089C18.699,68.157 15.744,68.335 12.242,68.485C8.740,68.636 5.410,68.824 4.842,68.903C4.164,68.998 3.745,68.944 3.623,68.746Z"/>
</svg>
